<svg width="1209" height="170" viewBox="0 0 1209 170" fill="none" xmlns="http://www.w3.org/2000/svg">
<path d="M26.3469 125.2L138.847 68.14L138.667 28H7.44687V46.72H119.947V55.36L7.44687 112.42V154H138.667V135.28H26.3469V125.2ZM293.383 154V119.98H304.543L331.903 154H356.383L326.143 116.74C331.903 114.4 337.303 111.16 341.803 106.66C350.623 97.84 355.303 86.32 355.303 73.9C355.303 61.84 350.623 49.96 341.803 41.5C332.803 33.04 321.643 28 309.223 28H274.483V154H293.383ZM293.383 46.9H309.223C324.163 46.9 336.583 58.78 336.583 73.9C336.583 88.84 324.163 101.08 309.223 101.08H293.383V46.9ZM490.201 90.82C490.201 53.56 459.961 23.5 422.881 23.5C385.621 23.5 355.561 53.56 355.561 90.82C355.561 127.9 385.621 158.14 422.881 158.14C459.961 158.14 490.201 127.9 490.201 90.82ZM374.461 90.82C374.461 77.86 379.501 65.62 388.681 56.62C397.861 47.44 409.921 42.4 422.881 42.4C435.841 42.4 447.901 47.44 457.081 56.62C466.261 65.62 471.121 77.86 471.121 90.82C471.121 103.6 466.261 115.84 457.081 124.84C447.901 134.02 435.841 139.06 422.881 139.06C409.921 139.06 397.861 134.02 388.681 124.84C379.501 115.84 374.461 103.6 374.461 90.82Z" fill="#1C1C1C"/>
<path d="M508.494 18.0714C508.494 11.0366 502.784 5.36118 495.783 5.36118C488.748 5.36118 483.073 11.0366 483.073 18.0714C483.073 25.0722 488.748 30.7816 495.783 30.7816C502.784 30.7816 508.494 25.0722 508.494 18.0714ZM486.641 18.0714C486.641 15.6245 487.593 13.3136 489.326 11.6143C491.059 9.88113 493.336 8.92956 495.783 8.92956C498.23 8.92956 500.507 9.88113 502.24 11.6143C503.974 13.3136 504.891 15.6245 504.891 18.0714C504.891 20.4843 503.974 22.7953 502.24 24.4945C500.507 26.2277 498.23 27.1793 495.783 27.1793C493.336 27.1793 491.059 26.2277 489.326 24.4945C487.593 22.7953 486.641 20.4843 486.641 18.0714Z" fill="#1C1C1C"/>
<path d="M489.326 11.6143L490.026 12.3285L490.033 12.3215L489.326 11.6143ZM502.24 11.6143L501.533 12.3215L501.54 12.3284L502.24 11.6143ZM502.24 24.4945L501.54 23.7804L501.533 23.7874L502.24 24.4945ZM489.326 24.4945L490.033 23.7874L490.026 23.7804L489.326 24.4945ZM509.494 18.0714C509.494 10.4826 503.335 4.36118 495.783 4.36118V6.36118C502.234 6.36118 507.494 11.5906 507.494 18.0714H509.494ZM495.783 4.36118C488.196 4.36118 482.073 10.4843 482.073 18.0714H484.073C484.073 11.5889 489.301 6.36118 495.783 6.36118V4.36118ZM482.073 18.0714C482.073 25.6228 488.194 31.7816 495.783 31.7816V29.7816C489.303 29.7816 484.073 24.5217 484.073 18.0714H482.073ZM495.783 31.7816C503.336 31.7816 509.494 25.6245 509.494 18.0714H507.494C507.494 24.52 502.232 29.7816 495.783 29.7816V31.7816ZM487.641 18.0714C487.641 15.8866 488.49 13.835 490.026 12.3284L488.626 10.9003C486.696 12.7921 485.641 15.3624 485.641 18.0714H487.641ZM490.033 12.3215C491.581 10.7739 493.604 9.92956 495.783 9.92956V7.92956C493.069 7.92956 490.538 8.98834 488.619 10.9072L490.033 12.3215ZM495.783 9.92956C497.962 9.92956 499.986 10.7739 501.533 12.3215L502.947 10.9072C501.029 8.98834 498.498 7.92956 495.783 7.92956V9.92956ZM501.54 12.3284C503.07 13.8284 503.891 15.8768 503.891 18.0714H505.891C505.891 15.3722 504.877 12.7987 502.94 10.9003L501.54 12.3284ZM503.891 18.0714C503.891 20.23 503.072 22.2791 501.54 23.7804L502.94 25.2086C504.875 23.3115 505.891 20.7387 505.891 18.0714H503.891ZM501.533 23.7874C499.986 25.3349 497.962 26.1793 495.783 26.1793V28.1793C498.498 28.1793 501.029 27.1205 502.947 25.2016L501.533 23.7874ZM495.783 26.1793C493.604 26.1793 491.581 25.3349 490.033 23.7874L488.619 25.2016C490.538 27.1205 493.069 28.1793 495.783 28.1793V26.1793ZM490.026 23.7804C488.488 22.2724 487.641 20.2202 487.641 18.0714H485.641C485.641 20.7484 486.698 23.3181 488.626 25.2086L490.026 23.7804Z" fill="#1C1C1C"/>
<mask id="path-4-inside-1_191_374" fill="white">
<path d="M268 92C268 79.7376 264.364 67.7505 257.551 57.5546C250.738 47.3588 241.055 39.4121 229.726 34.7195C218.397 30.0268 205.931 28.799 193.904 31.1913C181.878 33.5836 170.83 39.4885 162.159 48.1594C153.489 56.8302 147.584 67.8776 145.191 79.9044C142.799 91.9312 144.027 104.397 148.719 115.726C153.412 127.055 161.359 136.738 171.555 143.551C181.75 150.364 193.738 154 206 154V92H268Z"/>
</mask>
<path d="M268 92C268 79.7376 264.364 67.7505 257.551 57.5546C250.738 47.3588 241.055 39.4121 229.726 34.7195C218.397 30.0268 205.931 28.799 193.904 31.1913C181.878 33.5836 170.83 39.4885 162.159 48.1594C153.489 56.8302 147.584 67.8776 145.191 79.9044C142.799 91.9312 144.027 104.397 148.719 115.726C153.412 127.055 161.359 136.738 171.555 143.551C181.75 150.364 193.738 154 206 154V92H268Z" stroke="#1C1C1C" stroke-width="37.7606" mask="url(#path-4-inside-1_191_374)"/>
<path d="M569.153 154L580.853 122.86H632.513L644.393 154H666.533L619.553 28H594.893L547.733 154H569.153ZM606.593 50.32L626.753 105.22H586.613L606.593 50.32ZM718.824 155.08C738.804 155.08 751.764 146.08 757.884 137.08L759.684 154H775.704V85.06H720.984V102.52H755.904V105.58C754.824 125.92 739.164 136.9 719.724 136.9C695.604 136.9 680.484 118 680.484 91C680.484 64 695.964 45.1 719.904 45.1C737.364 45.1 749.424 54.82 753.204 70.84H774.624C770.844 44.2 749.604 26.92 720.444 26.92C683.004 26.92 659.244 52.66 659.244 91C659.244 129.34 683.544 155.08 718.824 155.08ZM788.853 154H873.273V135.64H809.553V99.1H860.313V81.28H809.553V46.36H871.113V28H788.853V154ZM900.719 154V64.72L962.099 154H980.999V28H960.659V117.28L899.279 28H880.379V154H900.719ZM1048.77 155.08C1078.11 155.08 1099.53 137.8 1103.49 111.16H1082.07C1078.11 127.18 1066.05 136.9 1048.59 136.9C1024.83 136.9 1010.43 117.82 1010.43 91C1010.43 64 1025.19 45.1 1049.13 45.1C1066.23 45.1 1078.11 55 1082.25 70.84H1103.67C1099.53 44.2 1078.83 26.92 1050.03 26.92C1012.77 26.92 989.193 52.66 989.193 91C989.193 129.7 1012.05 155.08 1048.77 155.08ZM1140.04 107.38V154H1160.74V107.38L1207.72 28H1184.5L1150.48 85.6L1117.36 28H1093.06L1140.04 107.38Z" fill="#1C1C1C"/>
<path d="M569.153 154V154.616H569.579L569.729 154.216L569.153 154ZM580.853 122.86V122.244H580.427L580.277 122.644L580.853 122.86ZM632.513 122.86L633.088 122.641L632.937 122.244H632.513V122.86ZM644.393 154L643.818 154.219L643.969 154.616H644.393V154ZM666.533 154V154.616H667.419L667.11 153.785L666.533 154ZM619.553 28L620.13 27.7849L619.98 27.3845H619.553V28ZM594.893 28V27.3845H594.466L594.316 27.7842L594.893 28ZM547.733 154L547.156 153.784L546.845 154.616H547.733V154ZM606.593 50.32L607.171 50.1078L606.59 48.5272L606.015 50.1095L606.593 50.32ZM626.753 105.22V105.836H627.635L627.331 105.008L626.753 105.22ZM586.613 105.22L586.035 105.009L585.734 105.836H586.613V105.22ZM569.729 154.216L581.429 123.076L580.277 122.644L568.577 153.784L569.729 154.216ZM580.853 123.476H632.513V122.244H580.853V123.476ZM631.938 123.079L643.818 154.219L644.968 153.781L633.088 122.641L631.938 123.079ZM644.393 154.616H666.533V153.384H644.393V154.616ZM667.11 153.785L620.13 27.7849L618.976 28.215L665.956 154.215L667.11 153.785ZM619.553 27.3845H594.893V28.6155H619.553V27.3845ZM594.316 27.7842L547.156 153.784L548.309 154.216L595.469 28.2158L594.316 27.7842ZM547.733 154.616H569.153V153.384H547.733V154.616ZM606.015 50.5322L626.175 105.432L627.331 105.008L607.171 50.1078L606.015 50.5322ZM626.753 104.604H586.613V105.836H626.753V104.604ZM587.191 105.431L607.171 50.5305L606.015 50.1095L586.035 105.009L587.191 105.431ZM757.884 137.08L758.496 137.015L758.319 135.346L757.375 136.734L757.884 137.08ZM759.684 154L759.072 154.065L759.131 154.616H759.684V154ZM775.704 154V154.616H776.32V154H775.704ZM775.704 85.06H776.32V84.4445H775.704V85.06ZM720.984 85.06V84.4445H720.369V85.06H720.984ZM720.984 102.52H720.369V103.136H720.984V102.52ZM755.904 102.52H756.52V101.904H755.904V102.52ZM755.904 105.58L756.519 105.613L756.52 105.596V105.58H755.904ZM753.204 70.84L752.605 70.9814L752.717 71.4555H753.204V70.84ZM774.624 70.84V71.4555H775.333L775.234 70.7535L774.624 70.84ZM718.824 155.696C739.001 155.696 752.155 146.601 758.393 137.426L757.375 136.734C751.374 145.559 738.608 154.464 718.824 154.464V155.696ZM757.272 137.145L759.072 154.065L760.296 153.935L758.496 137.015L757.272 137.145ZM759.684 154.616H775.704V153.384H759.684V154.616ZM776.32 154V85.06H775.089V154H776.32ZM775.704 84.4445H720.984V85.6755H775.704V84.4445ZM720.369 85.06V102.52H721.6V85.06H720.369ZM720.984 103.136H755.904V101.904H720.984V103.136ZM755.289 102.52V105.58H756.52V102.52H755.289ZM755.29 105.547C754.758 115.554 750.649 123.219 744.31 128.391C737.961 133.571 729.333 136.284 719.724 136.284V137.516C729.556 137.516 738.477 134.739 745.089 129.344C751.71 123.941 755.97 115.946 756.519 105.613L755.29 105.547ZM719.724 136.284C707.839 136.284 698.204 131.634 691.531 123.679C684.849 115.714 681.1 104.39 681.1 91H679.869C679.869 104.61 683.68 116.236 690.588 124.471C697.505 132.716 707.49 137.516 719.724 137.516V136.284ZM681.1 91C681.1 77.614 684.937 66.2897 691.687 58.3229C698.428 50.3655 708.109 45.7155 719.904 45.7155V44.4845C707.76 44.4845 697.731 49.2845 690.747 57.5271C683.772 65.7603 679.869 77.386 679.869 91H681.1ZM719.904 45.7155C728.518 45.7155 735.759 48.1116 741.305 52.4474C746.851 56.783 750.743 63.0896 752.605 70.9814L753.803 70.6986C751.886 62.5704 747.857 56.007 742.063 51.4776C736.27 46.9484 728.751 44.4845 719.904 44.4845V45.7155ZM753.204 71.4555H774.624V70.2245H753.204V71.4555ZM775.234 70.7535C771.406 43.7749 749.874 26.3045 720.444 26.3045V27.5355C749.335 27.5355 770.283 44.625 774.015 70.9265L775.234 70.7535ZM720.444 26.3045C701.578 26.3045 686.108 32.7937 675.357 44.1595C664.61 55.5216 658.629 71.7029 658.629 91H659.86C659.86 71.957 665.759 56.0984 676.252 45.0055C686.741 33.9163 701.871 27.5355 720.444 27.5355V26.3045ZM658.629 91C658.629 110.301 664.747 126.479 675.355 137.838C685.965 149.2 701.028 155.696 718.824 155.696V154.464C701.341 154.464 686.614 148.09 676.254 136.997C665.892 125.901 659.86 110.039 659.86 91H658.629ZM788.853 154H788.237V154.616H788.853V154ZM873.273 154V154.616H873.888V154H873.273ZM873.273 135.64H873.888V135.024H873.273V135.64ZM809.553 135.64H808.937V136.256H809.553V135.64ZM809.553 99.1V98.4845H808.937V99.1H809.553ZM860.313 99.1V99.7155H860.928V99.1H860.313ZM860.313 81.28H860.928V80.6645H860.313V81.28ZM809.553 81.28H808.937V81.8955H809.553V81.28ZM809.553 46.36V45.7444H808.937V46.36H809.553ZM871.113 46.36V46.9755H871.728V46.36H871.113ZM871.113 28H871.728V27.3845H871.113V28ZM788.853 28V27.3845H788.237V28H788.853ZM788.853 154.616H873.273V153.384H788.853V154.616ZM873.888 154V135.64H872.657V154H873.888ZM873.273 135.024H809.553V136.256H873.273V135.024ZM810.168 135.64V99.1H808.937V135.64H810.168ZM809.553 99.7155H860.313V98.4845H809.553V99.7155ZM860.928 99.1V81.28H859.697V99.1H860.928ZM860.313 80.6645H809.553V81.8955H860.313V80.6645ZM810.168 81.28V46.36H808.937V81.28H810.168ZM809.553 46.9755H871.113V45.7444H809.553V46.9755ZM871.728 46.36V28H870.497V46.36H871.728ZM871.113 27.3845H788.853V28.6155H871.113V27.3845ZM788.237 28V154H789.468V28H788.237ZM900.719 154V154.616H901.334V154H900.719ZM900.719 64.72L901.226 64.3713L900.103 62.7382V64.72H900.719ZM962.099 154L961.591 154.349L961.775 154.616H962.099V154ZM980.999 154V154.616H981.614V154H980.999ZM980.999 28H981.614V27.3845H980.999V28ZM960.659 28V27.3845H960.043V28H960.659ZM960.659 117.28L960.151 117.629L961.274 119.262V117.28H960.659ZM899.279 28L899.786 27.6513L899.602 27.3845H899.279V28ZM880.379 28V27.3845H879.763V28H880.379ZM880.379 154H879.763V154.616H880.379V154ZM901.334 154V64.72H900.103V154H901.334ZM900.211 65.0687L961.591 154.349L962.606 153.651L901.226 64.3713L900.211 65.0687ZM962.099 154.616H980.999V153.384H962.099V154.616ZM981.614 154V28H980.383V154H981.614ZM980.999 27.3845H960.659V28.6155H980.999V27.3845ZM960.043 28V117.28H961.274V28H960.043ZM961.166 116.931L899.786 27.6513L898.771 28.3487L960.151 117.629L961.166 116.931ZM899.279 27.3845H880.379V28.6155H899.279V27.3845ZM879.763 28V154H880.994V28H879.763ZM880.379 154.616H900.719V153.384H880.379V154.616ZM1103.49 111.16L1104.1 111.251L1104.21 110.544H1103.49V111.16ZM1082.07 111.16V110.544H1081.59L1081.48 111.012L1082.07 111.16ZM1082.25 70.84L1081.66 70.9957L1081.78 71.4555H1082.25V70.84ZM1103.67 70.84V71.4555H1104.39L1104.28 70.7455L1103.67 70.84ZM1048.77 155.696C1078.38 155.696 1100.09 138.229 1104.1 111.251L1102.88 111.069C1098.97 137.372 1077.85 154.464 1048.77 154.464V155.696ZM1103.49 110.544H1082.07V111.776H1103.49V110.544ZM1081.48 111.012C1079.52 118.907 1075.59 125.215 1070.02 129.552C1064.45 133.889 1057.21 136.284 1048.59 136.284V137.516C1057.44 137.516 1064.96 135.051 1070.77 130.523C1076.59 125.995 1080.66 119.433 1082.67 111.308L1081.48 111.012ZM1048.59 136.284C1036.89 136.284 1027.53 131.595 1021.08 123.62C1014.62 115.633 1011.05 104.306 1011.05 91H1009.82C1009.82 104.514 1013.45 116.137 1020.12 124.395C1026.81 132.665 1036.53 137.516 1048.59 137.516V136.284ZM1011.05 91C1011.05 77.607 1014.71 66.2816 1021.28 58.3167C1027.84 50.3639 1037.34 45.7155 1049.13 45.7155V44.4845C1036.99 44.4845 1027.13 49.2861 1020.33 57.5333C1013.54 65.7684 1009.82 77.393 1009.82 91H1011.05ZM1049.13 45.7155C1057.56 45.7155 1064.67 48.1531 1070.17 52.5125C1075.68 56.8733 1079.62 63.186 1081.66 70.9957L1082.85 70.6843C1080.75 62.654 1076.68 56.0967 1070.93 51.5475C1065.19 46.9969 1057.81 44.4845 1049.13 44.4845V45.7155ZM1082.25 71.4555H1103.67V70.2245H1082.25V71.4555ZM1104.28 70.7455C1100.09 43.785 1079.11 26.3045 1050.03 26.3045V27.5355C1078.55 27.5355 1098.97 44.615 1103.06 70.9345L1104.28 70.7455ZM1050.03 26.3045C1031.25 26.3045 1015.87 32.7945 1005.19 44.1609C994.513 55.5233 988.577 71.7042 988.577 91H989.808C989.808 71.9558 995.663 56.0967 1006.09 45.0041C1016.51 33.9155 1031.55 27.5355 1050.03 27.5355V26.3045ZM988.577 91C988.577 110.469 994.329 126.65 1004.76 137.97C1015.2 149.295 1030.26 155.696 1048.77 155.696V154.464C1030.56 154.464 1015.84 148.175 1005.67 137.135C995.487 126.09 989.808 110.231 989.808 91H988.577ZM1140.04 107.38H1140.66V107.212L1140.57 107.066L1140.04 107.38ZM1140.04 154H1139.43V154.616H1140.04V154ZM1160.74 154V154.616H1161.36V154H1160.74ZM1160.74 107.38L1160.21 107.066L1160.13 107.212V107.38H1160.74ZM1207.72 28L1208.25 28.3135L1208.8 27.3845H1207.72V28ZM1184.5 28V27.3845H1184.15L1183.97 27.687L1184.5 28ZM1150.48 85.6L1149.95 85.9068L1150.48 86.8225L1151.01 85.913L1150.48 85.6ZM1117.36 28L1117.9 27.6932L1117.72 27.3845H1117.36V28ZM1093.06 28V27.3845H1091.98L1092.53 28.3135L1093.06 28ZM1139.43 107.38V154H1140.66V107.38H1139.43ZM1140.04 154.616H1160.74V153.384H1140.04V154.616ZM1161.36 154V107.38H1160.13V154H1161.36ZM1161.27 107.694L1208.25 28.3135L1207.19 27.6865L1160.21 107.066L1161.27 107.694ZM1207.72 27.3845H1184.5V28.6155H1207.72V27.3845ZM1183.97 27.687L1149.95 85.287L1151.01 85.913L1185.03 28.313L1183.97 27.687ZM1151.02 85.2932L1117.9 27.6932L1116.83 28.3068L1149.95 85.9068L1151.02 85.2932ZM1117.36 27.3845H1093.06V28.6155H1117.36V27.3845ZM1092.53 28.3135L1139.51 107.694L1140.57 107.066L1093.59 27.6865L1092.53 28.3135Z" fill="#1C1C1C"/>
</svg>