<svg width="150" height="150" viewBox="0 0 150 150" fill="none" xmlns="http://www.w3.org/2000/svg">
<path d="M146.84 25C146.84 28.134 144.998 31.2302 141.412 34.1495C137.833 37.0641 132.608 39.7221 126.085 41.9685C113.047 46.459 94.9859 49.25 75.0012 49.25C55.0166 49.25 36.9556 46.459 23.9172 41.9685C17.3944 39.7221 12.1694 37.0641 8.59009 34.1495C5.00486 31.2302 3.16211 28.134 3.16211 25C3.16211 21.866 5.00486 18.7698 8.59009 15.8505C12.1694 12.9359 17.3944 10.2779 23.9172 8.03145C36.9556 3.54096 55.0166 0.75 75.0012 0.75C94.9859 0.75 113.047 3.54096 126.085 8.03145C132.608 10.2779 137.833 12.9359 141.412 15.8505C144.998 18.7698 146.84 21.866 146.84 25Z" stroke="#1C1C1C" stroke-width="1.5"/>
<path d="M146.84 50C146.84 53.134 144.998 56.2302 141.412 59.1495C137.833 62.0641 132.608 64.7221 126.085 66.9685C113.047 71.459 94.9859 74.25 75.0012 74.25C55.0166 74.25 36.9556 71.459 23.9172 66.9685C17.3944 64.7221 12.1694 62.0641 8.59009 59.1495C5.00486 56.2302 3.16211 53.134 3.16211 50C3.16211 46.866 5.00486 43.7698 8.59009 40.8505C12.1694 37.9359 17.3944 35.2779 23.9172 33.0315C36.9556 28.541 55.0166 25.75 75.0012 25.75C94.9859 25.75 113.047 28.541 126.085 33.0315C132.608 35.2779 137.833 37.9359 141.412 40.8505C144.998 43.7698 146.84 46.866 146.84 50Z" stroke="#1C1C1C" stroke-width="1.5"/>
<path d="M146.84 75C146.84 78.134 144.998 81.2302 141.412 84.1495C137.833 87.0641 132.608 89.7221 126.085 91.9685C113.047 96.459 94.9859 99.25 75.0012 99.25C55.0166 99.25 36.9556 96.459 23.9172 91.9685C17.3944 89.7221 12.1694 87.0641 8.59009 84.1495C5.00486 81.2302 3.16211 78.134 3.16211 75C3.16211 71.866 5.00486 68.7698 8.59009 65.8505C12.1694 62.9359 17.3944 60.2779 23.9172 58.0315C36.9556 53.541 55.0166 50.75 75.0012 50.75C94.9859 50.75 113.047 53.541 126.085 58.0315C132.608 60.2779 137.833 62.9359 141.412 65.8505C144.998 68.7698 146.84 71.866 146.84 75Z" stroke="#1C1C1C" stroke-width="1.5"/>
<path d="M146.303 109.061C145.933 112.171 143.738 115.012 139.835 117.457C135.938 119.898 130.438 121.877 123.698 123.284C110.227 126.097 91.9708 126.589 72.1356 124.068C52.3003 121.548 34.704 116.499 22.2936 110.398C16.0849 107.345 11.213 104.048 8.00473 100.704C4.79114 97.3543 3.32822 94.0489 3.69845 90.9388C4.06868 87.8287 6.26321 84.9882 10.1667 82.5428C14.0636 80.1015 19.5636 78.1224 26.3032 76.7154C39.7748 73.903 58.0305 73.4109 77.8658 75.9316C97.7011 78.4523 115.297 83.5004 127.708 89.6019C133.916 92.6543 138.788 95.9515 141.997 99.2957C145.21 102.646 146.673 105.951 146.303 109.061Z" stroke="#1C1C1C" stroke-width="1.5"/>
<path d="M146.84 125C146.84 128.134 144.998 131.23 141.412 134.15C137.833 137.064 132.608 139.722 126.085 141.969C113.047 146.459 94.9859 149.25 75.0012 149.25C55.0166 149.25 36.9556 146.459 23.9172 141.969C17.3944 139.722 12.1694 137.064 8.59009 134.15C5.00486 131.23 3.16211 128.134 3.16211 125C3.16211 121.866 5.00486 118.77 8.59009 115.85C12.1694 112.936 17.3944 110.278 23.9172 108.031C36.9556 103.541 55.0166 100.75 75.0012 100.75C94.9859 100.75 113.047 103.541 126.085 108.031C132.608 110.278 137.833 112.936 141.412 115.85C144.998 118.77 146.84 121.866 146.84 125Z" stroke="#1C1C1C" stroke-width="1.5"/>
</svg>
