<svg width="160" height="23" viewBox="0 0 160 23" fill="none" xmlns="http://www.w3.org/2000/svg">
<path d="M3.48 17.16L18.48 9.552L18.456 4.2H0.96V6.696H15.96V7.848L0.96 15.456V21H18.456V18.504H3.48V17.16ZM39.0848 21V16.464H40.5728L44.2208 21H47.4848L43.4528 16.032C44.2208 15.72 44.9408 15.288 45.5408 14.688C46.7168 13.512 47.3408 11.976 47.3408 10.32C47.3408 8.712 46.7168 7.128 45.5408 6C44.3408 4.872 42.8528 4.2 41.1968 4.2H36.5648V21H39.0848ZM39.0848 6.72H41.1968C43.1888 6.72 44.8448 8.304 44.8448 10.32C44.8448 12.312 43.1888 13.944 41.1968 13.944H39.0848V6.72ZM65.3273 12.576C65.3273 7.608 61.2953 3.6 56.3513 3.6C51.3833 3.6 47.3753 7.608 47.3753 12.576C47.3753 17.52 51.3833 21.552 56.3513 21.552C61.2953 21.552 65.3273 17.52 65.3273 12.576ZM49.8953 12.576C49.8953 10.848 50.5673 9.216 51.7913 8.016C53.0153 6.792 54.6233 6.12 56.3513 6.12C58.0793 6.12 59.6873 6.792 60.9113 8.016C62.1353 9.216 62.7833 10.848 62.7833 12.576C62.7833 14.28 62.1353 15.912 60.9113 17.112C59.6873 18.336 58.0793 19.008 56.3513 19.008C54.6233 19.008 53.0153 18.336 51.7913 17.112C50.5673 15.912 49.8953 14.28 49.8953 12.576ZM74.3974 21L75.9574 16.848H82.8454L84.4294 21H87.3814L81.1174 4.2H77.8294L71.5414 21H74.3974ZM79.3894 7.176L82.0774 14.496H76.7254L79.3894 7.176ZM94.3536 21.144C97.0176 21.144 98.7456 19.944 99.5616 18.744L99.8016 21H101.938V11.808H94.6416V14.136H99.2976V14.544C99.1536 17.256 97.0656 18.72 94.4736 18.72C91.2576 18.72 89.2416 16.2 89.2416 12.6C89.2416 9 91.3056 6.48 94.4976 6.48C96.8256 6.48 98.4336 7.776 98.9376 9.912H101.794C101.29 6.36 98.4576 4.056 94.5696 4.056C89.5776 4.056 86.4096 7.488 86.4096 12.6C86.4096 17.712 89.6496 21.144 94.3536 21.144ZM103.691 21H114.947V18.552H106.451V13.68H113.219V11.304H106.451V6.648H114.659V4.2H103.691V21ZM118.606 21V9.096L126.79 21H129.31V4.2H126.598V16.104L118.414 4.2H115.894V21H118.606ZM138.347 21.144C142.259 21.144 145.115 18.84 145.643 15.288H142.787C142.259 17.424 140.651 18.72 138.323 18.72C135.155 18.72 133.235 16.176 133.235 12.6C133.235 9 135.203 6.48 138.395 6.48C140.675 6.48 142.259 7.8 142.811 9.912H145.667C145.115 6.36 142.355 4.056 138.515 4.056C133.547 4.056 130.403 7.488 130.403 12.6C130.403 17.76 133.451 21.144 138.347 21.144ZM150.516 14.784V21H153.276V14.784L159.54 4.2H156.444L151.908 11.88L147.492 4.2H144.252L150.516 14.784Z" fill="white"/>
<path d="M3.48 17.16L3.42562 17.0528L3.35979 17.0862V17.16H3.48ZM18.48 9.552L18.5344 9.65921L18.6005 9.62565L18.6002 9.55146L18.48 9.552ZM18.456 4.2L18.5762 4.19946L18.5757 4.07979H18.456V4.2ZM0.96 4.2V4.07979H0.839787V4.2H0.96ZM0.96 6.696H0.839787V6.81621H0.96V6.696ZM15.96 6.696H16.0802V6.57579H15.96V6.696ZM15.96 7.848L16.0144 7.95521L16.0802 7.92182V7.848H15.96ZM0.96 15.456L0.905623 15.3488L0.839787 15.3822V15.456H0.96ZM0.96 21H0.839787V21.1202H0.96V21ZM18.456 21V21.1202H18.5762V21H18.456ZM18.456 18.504H18.5762V18.3838H18.456V18.504ZM3.48 18.504H3.35979V18.6242H3.48V18.504ZM3.53438 17.2672L18.5344 9.65921L18.4256 9.44479L3.42562 17.0528L3.53438 17.2672ZM18.6002 9.55146L18.5762 4.19946L18.3358 4.20054L18.3598 9.55254L18.6002 9.55146ZM18.456 4.07979H0.96V4.32021H18.456V4.07979ZM0.839787 4.2V6.696H1.08021V4.2H0.839787ZM0.96 6.81621H15.96V6.57579H0.96V6.81621ZM15.8398 6.696V7.848H16.0802V6.696H15.8398ZM15.9056 7.74079L0.905623 15.3488L1.01438 15.5632L16.0144 7.95521L15.9056 7.74079ZM0.839787 15.456V21H1.08021V15.456H0.839787ZM0.96 21.1202H18.456V20.8798H0.96V21.1202ZM18.5762 21V18.504H18.3358V21H18.5762ZM18.456 18.3838H3.48V18.6242H18.456V18.3838ZM3.60021 18.504V17.16H3.35979V18.504H3.60021ZM39.0848 21V21.1202H39.205V21H39.0848ZM39.0848 16.464V16.3438H38.9645V16.464H39.0848ZM40.5728 16.464L40.6664 16.3887L40.6303 16.3438H40.5728V16.464ZM44.2208 21L44.1271 21.0753L44.1632 21.1202H44.2208V21ZM47.4848 21V21.1202H47.7371L47.5781 20.9242L47.4848 21ZM43.4528 16.032L43.4075 15.9206L43.2571 15.9817L43.3594 16.1078L43.4528 16.032ZM45.5408 14.688L45.4557 14.603L45.5408 14.688ZM45.5408 6L45.624 5.91324L45.6231 5.91241L45.5408 6ZM36.5648 4.2V4.07979H36.4445V4.2H36.5648ZM36.5648 21H36.4445V21.1202H36.5648V21ZM39.0848 6.72V6.59979H38.9645V6.72H39.0848ZM39.0848 13.944H38.9645V14.0642H39.0848V13.944ZM39.205 21V16.464H38.9645V21H39.205ZM39.0848 16.5842H40.5728V16.3438H39.0848V16.5842ZM40.4791 16.5393L44.1271 21.0753L44.3144 20.9247L40.6664 16.3887L40.4791 16.5393ZM44.2208 21.1202H47.4848V20.8798H44.2208V21.1202ZM47.5781 20.9242L43.5461 15.9562L43.3594 16.1078L47.3914 21.0758L47.5781 20.9242ZM43.498 16.1434C44.2774 15.8267 45.012 15.3867 45.6258 14.773L45.4557 14.603C44.8695 15.1893 44.1641 15.6133 43.4075 15.9206L43.498 16.1434ZM45.6258 14.773C46.8247 13.5741 47.461 12.0073 47.461 10.32H47.2205C47.2205 11.9447 46.6088 13.4499 45.4557 14.603L45.6258 14.773ZM47.461 10.32C47.461 8.68164 46.8253 7.06552 45.624 5.91324L45.4575 6.08676C46.6082 7.19048 47.2205 8.74236 47.2205 10.32H47.461ZM45.6231 5.91241C44.4039 4.76633 42.8873 4.07979 41.1968 4.07979V4.32021C42.8182 4.32021 44.2776 4.97767 45.4584 6.08759L45.6231 5.91241ZM41.1968 4.07979H36.5648V4.32021H41.1968V4.07979ZM36.4445 4.2V21H36.685V4.2H36.4445ZM36.5648 21.1202H39.0848V20.8798H36.5648V21.1202ZM39.0848 6.84021H41.1968V6.59979H39.0848V6.84021ZM41.1968 6.84021C43.125 6.84021 44.7245 8.37297 44.7245 10.32H44.965C44.965 8.23503 43.2525 6.59979 41.1968 6.59979V6.84021ZM44.7245 10.32C44.7245 12.2446 43.1234 13.8238 41.1968 13.8238V14.0642C43.2541 14.0642 44.965 12.3794 44.965 10.32H44.7245ZM41.1968 13.8238H39.0848V14.0642H41.1968V13.8238ZM39.205 13.944V6.72H38.9645V13.944H39.205ZM51.7913 8.016L51.8754 8.10184L51.8763 8.101L51.7913 8.016ZM60.9113 8.016L60.8262 8.10101L60.8271 8.10184L60.9113 8.016ZM60.9113 17.112L60.8271 17.0262L60.8262 17.027L60.9113 17.112ZM51.7913 17.112L51.8763 17.027L51.8754 17.0262L51.7913 17.112ZM65.4475 12.576C65.4475 7.5414 61.3614 3.47979 56.3513 3.47979V3.72021C61.2291 3.72021 65.207 7.6746 65.207 12.576H65.4475ZM56.3513 3.47979C51.3169 3.47979 47.255 7.54161 47.255 12.576H47.4955C47.4955 7.67439 51.4496 3.72021 56.3513 3.72021V3.47979ZM47.255 12.576C47.255 17.5862 51.3167 21.6722 56.3513 21.6722V21.4318C51.4499 21.4318 47.4955 17.4538 47.4955 12.576H47.255ZM56.3513 21.6722C61.3616 21.6722 65.4475 17.5864 65.4475 12.576H65.207C65.207 17.4536 61.2289 21.4318 56.3513 21.4318V21.6722ZM50.0155 12.576C50.0155 10.8795 50.675 9.27868 51.8754 8.10184L51.7071 7.93016C50.4595 9.15331 49.775 10.8165 49.775 12.576H50.0155ZM51.8763 8.101C53.0779 6.89932 54.6554 6.24021 56.3513 6.24021V5.99979C54.5911 5.99979 52.9526 6.68468 51.7062 7.931L51.8763 8.101ZM56.3513 6.24021C58.0471 6.24021 59.6246 6.89932 60.8262 8.101L60.9963 7.931C59.7499 6.68468 58.1115 5.99979 56.3513 5.99979V6.24021ZM60.8271 8.10184C62.0267 9.27789 62.663 10.8783 62.663 12.576H62.9035C62.9035 10.8177 62.2438 9.15411 60.9954 7.93016L60.8271 8.10184ZM62.663 12.576C62.663 14.2494 62.0268 15.8499 60.8271 17.0262L60.9954 17.1978C62.2437 15.9741 62.9035 14.3106 62.9035 12.576H62.663ZM60.8262 17.027C59.6246 18.2287 58.0471 18.8878 56.3513 18.8878V19.1282C58.1115 19.1282 59.7499 18.4433 60.9963 17.197L60.8262 17.027ZM56.3513 18.8878C54.6554 18.8878 53.0779 18.2287 51.8763 17.027L51.7062 17.197C52.9526 18.4433 54.5911 19.1282 56.3513 19.1282V18.8878ZM51.8754 17.0262C50.6749 15.8491 50.0155 14.2483 50.0155 12.576H49.775C49.775 14.3117 50.4596 15.9749 51.7071 17.1978L51.8754 17.0262ZM74.3974 21V21.1202H74.4806L74.5099 21.0423L74.3974 21ZM75.9574 16.848V16.7278H75.8741L75.8448 16.8057L75.9574 16.848ZM82.8454 16.848L82.9577 16.8052L82.9282 16.7278H82.8454V16.848ZM84.4294 21L84.3171 21.0428L84.3466 21.1202H84.4294V21ZM87.3814 21V21.1202H87.5545L87.494 20.958L87.3814 21ZM81.1174 4.2L81.23 4.158L81.2009 4.07979H81.1174V4.2ZM77.8294 4.2V4.07979H77.746L77.7168 4.15786L77.8294 4.2ZM71.5414 21L71.4288 20.9579L71.368 21.1202H71.5414V21ZM79.3894 7.176L79.5022 7.13456L79.3889 6.82588L79.2764 7.13489L79.3894 7.176ZM82.0774 14.496V14.6162H82.2496L82.1902 14.4546L82.0774 14.496ZM76.7254 14.496L76.6124 14.4549L76.5537 14.6162H76.7254V14.496ZM74.5099 21.0423L76.0699 16.8903L75.8448 16.8057L74.2848 20.9577L74.5099 21.0423ZM75.9574 16.9682H82.8454V16.7278H75.9574V16.9682ZM82.7331 16.8908L84.3171 21.0428L84.5417 20.9572L82.9577 16.8052L82.7331 16.8908ZM84.4294 21.1202H87.3814V20.8798H84.4294V21.1202ZM87.494 20.958L81.23 4.158L81.0047 4.242L87.2687 21.042L87.494 20.958ZM81.1174 4.07979H77.8294V4.32021H81.1174V4.07979ZM77.7168 4.15786L71.4288 20.9579L71.654 21.0421L77.942 4.24214L77.7168 4.15786ZM71.5414 21.1202H74.3974V20.8798H71.5414V21.1202ZM79.2765 7.21744L81.9645 14.5374L82.1902 14.4546L79.5022 7.13456L79.2765 7.21744ZM82.0774 14.3758H76.7254V14.6162H82.0774V14.3758ZM76.8383 14.5371L79.5023 7.21711L79.2764 7.13489L76.6124 14.4549L76.8383 14.5371ZM99.5616 18.744L99.6811 18.7313L99.6464 18.4054L99.4622 18.6764L99.5616 18.744ZM99.8016 21L99.682 21.0127L99.6935 21.1202H99.8016V21ZM101.938 21V21.1202H102.058V21H101.938ZM101.938 11.808H102.058V11.6878H101.938V11.808ZM94.6416 11.808V11.6878H94.5213V11.808H94.6416ZM94.6416 14.136H94.5213V14.2562H94.6416V14.136ZM99.2976 14.136H99.4178V14.0158H99.2976V14.136ZM99.2976 14.544L99.4178 14.5504V14.544H99.2976ZM98.9376 9.912L98.8206 9.93961L98.8424 10.0322H98.9376V9.912ZM101.794 9.912V10.0322H101.932L101.913 9.89511L101.794 9.912ZM94.3536 21.2642C97.0559 21.2642 98.8218 20.0457 99.661 18.8116L99.4622 18.6764C98.6693 19.8423 96.9792 21.0238 94.3536 21.0238V21.2642ZM99.442 18.7567L99.682 21.0127L99.9211 20.9873L99.6811 18.7313L99.442 18.7567ZM99.8016 21.1202H101.938V20.8798H99.8016V21.1202ZM102.058 21V11.808H101.817V21H102.058ZM101.938 11.6878H94.6416V11.9282H101.938V11.6878ZM94.5213 11.808V14.136H94.7618V11.808H94.5213ZM94.6416 14.2562H99.2976V14.0158H94.6416V14.2562ZM99.1773 14.136V14.544H99.4178V14.136H99.1773ZM99.1775 14.5376C99.1072 15.8616 98.5639 16.8734 97.7276 17.5559C96.8892 18.24 95.7478 18.5998 94.4736 18.5998V18.8402C95.7914 18.8402 96.9899 18.468 97.8796 17.7421C98.7712 17.0146 99.3439 15.9384 99.4176 14.5504L99.1775 14.5376ZM94.4736 18.5998C92.8996 18.5998 91.6259 17.9844 90.7437 16.9327C89.8597 15.879 89.3618 14.3784 89.3618 12.6H89.1213C89.1213 14.4216 89.6314 15.981 90.5595 17.0873C91.4893 18.1956 92.8315 18.8402 94.4736 18.8402V18.5998ZM89.3618 12.6C89.3618 10.8223 89.8713 9.32169 90.7643 8.26771C91.6557 7.21556 92.9357 6.60021 94.4976 6.60021V6.35979C92.8674 6.35979 91.5194 7.00444 90.5808 8.11229C89.6438 9.21831 89.1213 10.7777 89.1213 12.6H89.3618ZM94.4976 6.60021C95.6388 6.60021 96.5957 6.91758 97.3275 7.48971C98.0593 8.06178 98.574 8.8947 98.8206 9.93961L99.0546 9.88439C98.7971 8.7933 98.2558 7.91022 97.4756 7.30029C96.6955 6.69042 95.6843 6.35979 94.4976 6.35979V6.60021ZM98.9376 10.0322H101.794V9.79179H98.9376V10.0322ZM101.913 9.89511C101.399 6.27699 98.5102 3.93579 94.5696 3.93579V4.17621C98.4049 4.17621 101.18 6.44301 101.675 9.92889L101.913 9.89511ZM94.5696 3.93579C92.0449 3.93579 89.9718 4.80439 88.5302 6.32839C87.0894 7.85167 86.2893 10.0192 86.2893 12.6H86.5298C86.5298 10.0688 87.3138 7.96433 88.7049 6.49361C90.0954 5.02361 92.1022 4.17621 94.5696 4.17621V3.93579ZM86.2893 12.6C86.2893 15.1815 87.1078 17.3484 88.5297 18.871C89.9523 20.3943 91.971 21.2642 94.3536 21.2642V21.0238C92.0321 21.0238 90.0789 20.1777 88.7054 18.707C87.3314 17.2356 86.5298 15.1305 86.5298 12.6H86.2893ZM103.691 21H103.57V21.1202H103.691V21ZM114.947 21V21.1202H115.067V21H114.947ZM114.947 18.552H115.067V18.4318H114.947V18.552ZM106.451 18.552H106.33V18.6722H106.451V18.552ZM106.451 13.68V13.5598H106.33V13.68H106.451ZM113.219 13.68V13.8002H113.339V13.68H113.219ZM113.219 11.304H113.339V11.1838H113.219V11.304ZM106.451 11.304H106.33V11.4242H106.451V11.304ZM106.451 6.648V6.52779H106.33V6.648H106.451ZM114.659 6.648V6.76821H114.779V6.648H114.659ZM114.659 4.2H114.779V4.07979H114.659V4.2ZM103.691 4.2V4.07979H103.57V4.2H103.691ZM103.691 21.1202H114.947V20.8798H103.691V21.1202ZM115.067 21V18.552H114.826V21H115.067ZM114.947 18.4318H106.451V18.6722H114.947V18.4318ZM106.571 18.552V13.68H106.33V18.552H106.571ZM106.451 13.8002H113.219V13.5598H106.451V13.8002ZM113.339 13.68V11.304H113.098V13.68H113.339ZM113.219 11.1838H106.451V11.4242H113.219V11.1838ZM106.571 11.304V6.648H106.33V11.304H106.571ZM106.451 6.76821H114.659V6.52779H106.451V6.76821ZM114.779 6.648V4.2H114.538V6.648H114.779ZM114.659 4.07979H103.691V4.32021H114.659V4.07979ZM103.57 4.2V21H103.811V4.2H103.57ZM118.606 21V21.1202H118.726V21H118.606ZM118.606 9.096L118.705 9.0279L118.486 8.70895V9.096H118.606ZM126.79 21L126.691 21.0681L126.727 21.1202H126.79V21ZM129.31 21V21.1202H129.43V21H129.31ZM129.31 4.2H129.43V4.07979H129.31V4.2ZM126.598 4.2V4.07979H126.478V4.2H126.598ZM126.598 16.104L126.499 16.1721L126.718 16.491V16.104H126.598ZM118.414 4.2L118.513 4.1319L118.477 4.07979H118.414V4.2ZM115.894 4.2V4.07979H115.774V4.2H115.894ZM115.894 21H115.774V21.1202H115.894V21ZM118.726 21V9.096H118.486V21H118.726ZM118.507 9.1641L126.691 21.0681L126.889 20.9319L118.705 9.0279L118.507 9.1641ZM126.79 21.1202H129.31V20.8798H126.79V21.1202ZM129.43 21V4.2H129.19V21H129.43ZM129.31 4.07979H126.598V4.32021H129.31V4.07979ZM126.478 4.2V16.104H126.718V4.2H126.478ZM126.697 16.0359L118.513 4.1319L118.315 4.2681L126.499 16.1721L126.697 16.0359ZM118.414 4.07979H115.894V4.32021H118.414V4.07979ZM115.774 4.2V21H116.014V4.2H115.774ZM115.894 21.1202H118.606V20.8798H115.894V21.1202ZM145.643 15.288L145.762 15.3057L145.782 15.1678H145.643V15.288ZM142.787 15.288V15.1678H142.693L142.67 15.2592L142.787 15.288ZM142.811 9.912L142.694 9.9424L142.718 10.0322H142.811V9.912ZM145.667 9.912V10.0322H145.807L145.785 9.89354L145.667 9.912ZM138.347 21.2642C142.311 21.2642 145.224 18.9237 145.762 15.3057L145.524 15.2703C145.006 18.7563 142.207 21.0238 138.347 21.0238V21.2642ZM145.643 15.1678H142.787V15.4082H145.643V15.1678ZM142.67 15.2592C142.412 16.3045 141.891 17.1379 141.156 17.7101C140.421 18.2824 139.464 18.5998 138.323 18.5998V18.8402C139.51 18.8402 140.521 18.5096 141.304 17.8998C142.087 17.2901 142.634 16.4075 142.903 15.3168L142.67 15.2592ZM138.323 18.5998C136.774 18.5998 135.537 17.9794 134.684 16.9254C133.829 15.8688 133.355 14.3676 133.355 12.6H133.114C133.114 14.4084 133.6 15.9672 134.497 17.0766C135.397 18.1886 136.703 18.8402 138.323 18.8402V18.5998ZM133.355 12.6C133.355 10.8209 133.841 9.3201 134.71 8.2665C135.578 7.21525 136.833 6.60021 138.395 6.60021V6.35979C136.764 6.35979 135.44 7.00475 134.525 8.1135C133.612 9.21989 133.114 10.7791 133.114 12.6H133.355ZM138.395 6.60021C139.511 6.60021 140.45 6.92289 141.176 7.49824C141.903 8.07383 142.424 8.90796 142.694 9.9424L142.927 9.8816C142.645 8.80404 142.099 7.92217 141.325 7.30976C140.552 6.6971 139.559 6.35979 138.395 6.35979V6.60021ZM142.811 10.0322H145.667V9.79179H142.811V10.0322ZM145.785 9.89354C145.224 6.27895 142.41 3.93579 138.515 3.93579V4.17621C142.3 4.17621 145.006 6.44105 145.548 9.93046L145.785 9.89354ZM138.515 3.93579C136.002 3.93579 133.941 4.80453 132.508 6.32867C131.076 7.852 130.282 10.0194 130.282 12.6H130.523C130.523 10.0686 131.301 7.964 132.683 6.49333C134.065 5.02347 136.06 4.17621 138.515 4.17621V3.93579ZM130.282 12.6C130.282 15.2033 131.052 17.3707 132.45 18.8885C133.85 20.4073 135.87 21.2642 138.347 21.2642V21.0238C135.928 21.0238 133.975 20.1887 132.627 18.7255C131.278 17.2613 130.523 15.1567 130.523 12.6H130.282ZM150.516 14.784H150.636V14.7511L150.62 14.7228L150.516 14.784ZM150.516 21H150.396V21.1202H150.516V21ZM153.276 21V21.1202H153.396V21H153.276ZM153.276 14.784L153.173 14.7228L153.156 14.7511V14.784H153.276ZM159.54 4.2L159.644 4.26123L159.751 4.07979H159.54V4.2ZM156.444 4.2V4.07979H156.376L156.341 4.13886L156.444 4.2ZM151.908 11.88L151.804 11.9399L151.907 12.1187L152.012 11.9411L151.908 11.88ZM147.492 4.2L147.596 4.14008L147.562 4.07979H147.492V4.2ZM144.252 4.2V4.07979H144.041L144.149 4.26123L144.252 4.2ZM150.396 14.784V21H150.636V14.784H150.396ZM150.516 21.1202H153.276V20.8798H150.516V21.1202ZM153.396 21V14.784H153.156V21H153.396ZM153.38 14.8452L159.644 4.26123L159.437 4.13877L153.173 14.7228L153.38 14.8452ZM159.54 4.07979H156.444V4.32021H159.54V4.07979ZM156.341 4.13886L151.805 11.8189L152.012 11.9411L156.548 4.26113L156.341 4.13886ZM152.012 11.8201L147.596 4.14008L147.388 4.25992L151.804 11.9399L152.012 11.8201ZM147.492 4.07979H144.252V4.32021H147.492V4.07979ZM144.149 4.26123L150.413 14.8452L150.62 14.7228L144.356 4.13877L144.149 4.26123Z" fill="white"/>
<path d="M71.3842 4.24706C71.3842 2.62353 70.0665 1.31373 68.4508 1.31373C66.8273 1.31373 65.5175 2.62353 65.5175 4.24706C65.5175 5.86275 66.8273 7.18039 68.4508 7.18039C70.0665 7.18039 71.3842 5.86275 71.3842 4.24706ZM66.341 4.24706C66.341 3.68235 66.5606 3.14902 66.9606 2.75686C67.3606 2.35686 67.8861 2.13725 68.4508 2.13725C69.0155 2.13725 69.541 2.35686 69.941 2.75686C70.341 3.14902 70.5528 3.68235 70.5528 4.24706C70.5528 4.80392 70.341 5.33725 69.941 5.72941C69.541 6.12941 69.0155 6.34902 68.4508 6.34902C67.8861 6.34902 67.3606 6.12941 66.9606 5.72941C66.5606 5.33725 66.341 4.80392 66.341 4.24706Z" fill="white"/>
<path d="M66.9606 2.75686L67.2901 3.09291L67.2934 3.08962L66.9606 2.75686ZM69.941 2.75686L69.6083 3.08964L69.6116 3.0929L69.941 2.75686ZM69.941 5.72941L69.6116 5.39336L69.6083 5.39666L69.941 5.72941ZM66.9606 5.72941L67.2934 5.39664L67.2901 5.39338L66.9606 5.72941ZM71.8547 4.24706C71.8547 2.36281 70.3256 0.843137 68.4508 0.843137V1.78431C69.8074 1.78431 70.9136 2.88425 70.9136 4.24706H71.8547ZM68.4508 0.843137C66.5674 0.843137 65.0469 2.36363 65.0469 4.24706H65.9881C65.9881 2.88343 67.0872 1.78431 68.4508 1.78431V0.843137ZM65.0469 4.24706C65.0469 6.12182 66.5666 7.65098 68.4508 7.65098V6.7098C67.088 6.7098 65.9881 5.60367 65.9881 4.24706H65.0469ZM68.4508 7.65098C70.3264 7.65098 71.8547 6.12264 71.8547 4.24706H70.9136C70.9136 5.60285 69.8066 6.7098 68.4508 6.7098V7.65098ZM66.8116 4.24706C66.8116 3.80569 66.9825 3.39441 67.2901 3.0929L66.6312 2.42083C66.1387 2.90363 65.8704 3.55902 65.8704 4.24706H66.8116ZM67.2934 3.08962C67.606 2.777 68.0122 2.60784 68.4508 2.60784V1.66667C67.7601 1.66667 67.1153 1.93673 66.6279 2.42411L67.2934 3.08962ZM68.4508 2.60784C68.8895 2.60784 69.2956 2.777 69.6083 3.08962L70.2738 2.42411C69.7864 1.93673 69.1416 1.66667 68.4508 1.66667V2.60784ZM69.6116 3.0929C69.916 3.39131 70.0822 3.80109 70.0822 4.24706H71.0234C71.0234 3.56361 70.7661 2.90673 70.2705 2.42083L69.6116 3.0929ZM70.0822 4.24706C70.0822 4.68424 69.9166 5.09433 69.6116 5.39338L70.2705 6.06545C70.7654 5.58018 71.0234 4.92361 71.0234 4.24706H70.0822ZM69.6083 5.39666C69.2956 5.70928 68.8895 5.87843 68.4508 5.87843V6.81961C69.1416 6.81961 69.7864 6.54955 70.2738 6.06217L69.6083 5.39666ZM68.4508 5.87843C68.0122 5.87843 67.606 5.70928 67.2934 5.39666L66.6279 6.06217C67.1153 6.54955 67.7601 6.81961 68.4508 6.81961V5.87843ZM67.2901 5.39338C66.9819 5.09121 66.8116 4.67964 66.8116 4.24706H65.8704C65.8704 4.9282 66.1394 5.5833 66.6312 6.06545L67.2901 5.39338Z" fill="white"/>
<mask id="path-5-inside-1_191_472" fill="white">
<path d="M36.0391 13.0688C36.0391 11.3877 35.5405 9.74432 34.6066 8.3465C33.6726 6.94868 32.345 5.85922 30.7919 5.21587C29.2387 4.57253 27.5296 4.4042 25.8808 4.73217C24.232 5.06015 22.7174 5.86969 21.5287 7.05844C20.3399 8.24719 19.5304 9.76174 19.2024 11.4106C18.8744 13.0594 19.0427 14.7685 19.6861 16.3217C20.3294 17.8748 21.4189 19.2023 22.8167 20.1363C24.2145 21.0703 25.8579 21.5688 27.5391 21.5688V13.0688H36.0391Z"/>
</mask>
<path d="M36.0391 13.0688C36.0391 11.3877 35.5405 9.74432 34.6066 8.3465C33.6726 6.94868 32.345 5.85922 30.7919 5.21587C29.2387 4.57253 27.5296 4.4042 25.8808 4.73217C24.232 5.06015 22.7174 5.86969 21.5287 7.05844C20.3399 8.24719 19.5304 9.76174 19.2024 11.4106C18.8744 13.0594 19.0427 14.7685 19.6861 16.3217C20.3294 17.8748 21.4189 19.2023 22.8167 20.1363C24.2145 21.0703 25.8579 21.5688 27.5391 21.5688V13.0688H36.0391Z" stroke="white" stroke-width="5.6" mask="url(#path-5-inside-1_191_472)"/>
</svg>
